<svg width="45" height="38" viewBox="0 0 45 38" fill="none" xmlns="http://www.w3.org/2000/svg">
<path fill-rule="evenodd" clip-rule="evenodd" d="M0 6.22106C0.383493 7.21164 0.728634 9.15864 1.11213 10.1151L8.93538 9.19279L19.0979 34.1622C38.2342 32.6934 42.6827 37.3048 41.3405 21.2505L36.6619 22.6169C37.3522 31.0197 35.2813 29.0727 21.8591 29.3118L12.5786 4.51316L0 6.22106ZM36.6236 20.704C37.1604 20.4991 37.5439 20.3624 38.1959 20.1575C39.3847 19.7817 40.5352 19.3035 41.8007 19.0644C43.4497 18.2105 43.1813 18.0738 43.8716 16.4343C44.4085 15.1363 44.4085 14.419 44.2167 12.8477C43.0279 13.2576 42.2609 14.0774 41.1488 14.8972C38.0808 15.4778 35.5114 15.1704 31.4081 13.9407C31.1013 11.7546 31.0246 8.85122 31.2163 6.66511C31.5614 2.90774 36.3168 3.79585 36.8153 6.35769V9.70516C38.7711 9.91011 40.4585 9.91011 42.3759 9.56853C42.4143 8.33885 42.491 5.91364 42.1075 4.78643C42.0308 4.58148 41.3789 3.31764 41.1104 2.97606C38.0041 -1.39615 27.8032 -0.747154 25.7324 3.5909C24.3134 5.2988 24.7353 9.97843 24.7353 11.8913C24.7353 18.9278 27.3814 18.5179 32.2517 18.962C31.6765 21.4555 30.9862 22.1045 31.6765 25.1445C33.2105 24.7005 33.7857 21.8654 36.6236 20.704ZM19.5581 36.2117C19.5581 37.6463 21.3989 38.5003 22.7028 37.6805C22.8178 37.6122 23.0096 37.4755 23.0863 37.3731C24.3901 35.9384 22.7411 33.8548 20.747 34.6063C20.4018 34.7429 20.1334 34.9479 19.9416 35.2211C19.7115 35.4261 19.5581 35.8018 19.5581 36.2117ZM35.7032 35.836C35.7032 37.2706 37.5439 38.1245 38.8478 37.3048C38.9629 37.2364 39.1546 37.0998 39.2313 36.9973C40.5352 35.5627 38.8862 33.4791 36.892 34.2305C36.5469 34.3672 36.2784 34.5721 36.0867 34.8454C35.8566 35.0503 35.7032 35.4602 35.7032 35.836Z" fill="#00A991"/>
</svg>
